<svg version="1.1" xmlns="http://www.w3.org/2000/svg" xmlns:xlink="http://www.w3.org/1999/xlink" x="0px" y="0px" viewBox="1 1 29 29" enable-background="new 0 0 30 30" xml:space="preserve">
<style type="text/css">
	.st1{fill:#333;}
</style>
<g>
<path class="st1" d="M 4 7 C 2.3550302 7 1 8.3550302 1 10 L 1 19 C 1 20.64497 2.3550302 22 4 22 L 24 22 C 25.64497 22 27 20.64497 27 19 L 27 10 C 27 8.3550302 25.64497 7 24 7 L 4 7 z M 4 9 L 24 9 C 24.56503 9 25 9.4349698 25 10 L 25 19 C 25 19.56503 24.56503 20 24 20 L 4 20 C 3.4349698 20 3 19.56503 3 19 L 3 10 C 3 9.4349698 3.4349698 9 4 9 z M 5 11 L 5 18 L 13 18 L 13 11 L 5 11 z M 28 12 L 28 17 L 29 17 C 29.552 17 30 16.552 30 16 L 30 13 C 30 12.448 29.552 12 29 12 L 28 12 z"></path>
</g>
</svg>