<svg version="1.1" xmlns="http://www.w3.org/2000/svg" xmlns:xlink="http://www.w3.org/1999/xlink" x="0px" y="0px" viewBox="0 0 1000 1000" enable-background="new 0 0 1000 1000" xml:space="preserve">
<style type="text/css">
	.st1{stroke:#333; fill:#333;}
	.st0{stroke:#AAA; fill:#AAA; transition: all 150ms ease; }
</style>
<g transform="translate(0.000000,511.000000) scale(0.100000,-0.120000)">
<path class="st1" d="M100,3270.1c0-7.7,414.5-514.3,921.1-1125.8l921.2-1113.1v-2047v-2047h409.4h409.4v2054.7v2052.1l708.8,859.7c391.5,473.4,806,974.9,923.7,1118.2l212.4,261H2354.3C1113.3,3282.8,100,3277.7,100,3270.1z"/>
<path class="st0" d="M9081.2,7.7v-3070.5h409.4H9900V7.7v3070.5h-409.4h-409.4V7.7z"/>
<path class="st0" d="M7238.9-708.8v-2354.1h409.4h409.4v2354.1v2354h-409.4h-409.4V-708.8z"/>
<path class="st0" d="M5396.6-1425.2v-1637.6H5806h409.4v1637.6V212.4H5806h-409.4V-1425.2z"/>
<path class="st1" d="M3554.3-2141.7v-921.2h409.4h409.4v921.2v921.2h-409.4h-409.4V-2141.7z"/>
</g>
</svg>